<svg width="31" height="28" viewBox="0 0 31 28" fill="none" xmlns="http://www.w3.org/2000/svg">
<path d="M24.9035 3.20997C24.6972 3.14581 24.6972 2.87401 24.9035 2.80985L26.1141 2.43364C26.3802 2.35083 26.622 2.21131 26.8203 2.02614C27.0186 1.84097 27.168 1.61524 27.2566 1.36683L27.6597 0.237621C27.7285 0.0451421 28.0197 0.0451421 28.0885 0.237621L28.4916 1.36742C28.5803 1.61577 28.7298 1.84143 28.9282 2.0265C29.1267 2.21157 29.3686 2.35096 29.6347 2.43364L30.8447 2.80985C30.8899 2.82368 30.9292 2.85047 30.9571 2.88639C30.985 2.92232 31 2.96555 31 3.00991C31 3.05427 30.985 3.09749 30.9571 3.13342C30.9292 3.16935 30.8899 3.19614 30.8447 3.20997L29.6341 3.58618C29.368 3.66893 29.1263 3.80836 28.928 3.99342C28.7297 4.17849 28.5803 4.4041 28.4916 4.6524L28.0885 5.78219C28.0736 5.82434 28.0449 5.86104 28.0064 5.88706C27.9679 5.91309 27.9216 5.9271 27.8741 5.9271C27.8266 5.9271 27.7802 5.91309 27.7417 5.88706C27.7032 5.86104 27.6745 5.82434 27.6597 5.78219L27.2566 4.6524C27.1679 4.4041 27.0185 4.17849 26.8202 3.99342C26.6219 3.80836 26.3801 3.66893 26.1141 3.58618L24.9035 3.20997ZM21.7166 5.46314C21.6895 5.45478 21.6659 5.43867 21.6493 5.4171C21.6326 5.39553 21.6236 5.3696 21.6236 5.34299C21.6236 5.31638 21.6326 5.29045 21.6493 5.26888C21.6659 5.24731 21.6895 5.2312 21.7166 5.22284L22.4428 4.99711C22.7666 4.89621 23.0203 4.6594 23.1284 4.35726L23.3703 3.6795C23.3793 3.65424 23.3966 3.63226 23.4197 3.61668C23.4428 3.6011 23.4706 3.59272 23.4991 3.59272C23.5276 3.59272 23.5554 3.6011 23.5785 3.61668C23.6016 3.63226 23.6189 3.65424 23.6278 3.6795L23.8697 4.35726C23.9229 4.50627 24.0126 4.64167 24.1316 4.75274C24.2506 4.8638 24.3957 4.94746 24.5553 4.99711L25.2816 5.22284C25.3086 5.2312 25.3322 5.24731 25.3489 5.26888C25.3656 5.29045 25.3746 5.31638 25.3746 5.34299C25.3746 5.3696 25.3656 5.39553 25.3489 5.4171C25.3322 5.43867 25.3086 5.45478 25.2816 5.46314L24.5553 5.68887C24.3957 5.73852 24.2506 5.82218 24.1316 5.93325C24.0126 6.04431 23.9229 6.17971 23.8697 6.32872L23.6278 7.00648C23.6189 7.03174 23.6016 7.05372 23.5785 7.0693C23.5554 7.08488 23.5276 7.09326 23.4991 7.09326C23.4706 7.09326 23.4428 7.08488 23.4197 7.0693C23.3966 7.05372 23.3793 7.03174 23.3703 7.00648L23.1284 6.32872C23.0753 6.17971 22.9856 6.04431 22.8666 5.93325C22.7476 5.82218 22.6025 5.73852 22.4428 5.68887L21.7166 5.46314ZM21.0609 1.34C21.0431 1.33425 21.0277 1.32346 21.0168 1.30914C21.0059 1.29481 21 1.27767 21 1.2601C21 1.24252 21.0059 1.22538 21.0168 1.21106C21.0277 1.19674 21.0431 1.18595 21.0609 1.18019L21.5447 1.0297C21.7609 0.962627 21.9303 0.804562 22.0022 0.60275L22.1634 0.151298C22.1696 0.134691 22.1812 0.120289 22.1965 0.110096C22.2119 0.0999041 22.2302 0.0944275 22.2491 0.0944275C22.2679 0.0944275 22.2863 0.0999041 22.3016 0.110096C22.317 0.120289 22.3285 0.134691 22.3347 0.151298L22.4959 0.60275C22.5314 0.702204 22.5912 0.792576 22.6706 0.86669C22.75 0.940803 22.8469 0.996619 22.9534 1.0297L23.4372 1.18019C23.455 1.18595 23.4704 1.19673 23.4813 1.21106C23.4923 1.22538 23.4981 1.24252 23.4981 1.2601C23.4981 1.27767 23.4923 1.29481 23.4813 1.30914C23.4704 1.32346 23.455 1.33425 23.4372 1.34L22.9534 1.49049C22.8469 1.52357 22.75 1.57939 22.6706 1.6535C22.5912 1.72762 22.5314 1.81799 22.4959 1.91744L22.3347 2.36831C22.3285 2.38492 22.317 2.39932 22.3016 2.40951C22.2863 2.4197 22.2679 2.42518 22.2491 2.42518C22.2302 2.42518 22.2119 2.4197 22.1965 2.40951C22.1812 2.39932 22.1696 2.38492 22.1634 2.36831L22.0022 1.91686C21.9303 1.71505 21.7609 1.55698 21.5447 1.4899L21.0609 1.34Z" fill="black"/>
<path d="M24.5 24.5L19.2663 19.257M22.1666 12.25C22.1666 14.88 21.1219 17.4024 19.2621 19.2621C17.4024 21.1219 14.88 22.1666 12.25 22.1666C9.61992 22.1666 7.09757 21.1219 5.23784 19.2621C3.3781 17.4024 2.33331 14.88 2.33331 12.25C2.33331 9.61992 3.3781 7.09757 5.23784 5.23784C7.09757 3.3781 9.61992 2.33331 12.25 2.33331C14.88 2.33331 17.4024 3.3781 19.2621 5.23784C21.1219 7.09757 22.1666 9.61992 22.1666 12.25V12.25Z" stroke="black" stroke-width="2" stroke-linecap="round"/>
</svg>
