<svg width="20" height="23" viewBox="0 0 20 23" fill="none" xmlns="http://www.w3.org/2000/svg">
<g filter="url(#filter0_d_147_309)">
<path d="M14 10.6667C13.4747 10.6667 13 10.8734 12.644 11.2047L7.94 8.46671C7.97333 8.31337 8 8.16004 8 8.00004C8 7.84004 7.97333 7.68671 7.94 7.53337L12.64 4.79337C13 5.12671 13.4733 5.33337 14 5.33337C15.1067 5.33337 16 4.44004 16 3.33337C16 2.22671 15.1067 1.33337 14 1.33337C12.8933 1.33337 12 2.22671 12 3.33337C12 3.49337 12.0267 3.64671 12.06 3.80004L7.36 6.54004C7 6.20671 6.52667 6.00004 6 6.00004C4.89333 6.00004 4 6.89337 4 8.00004C4 9.10671 4.89333 10 6 10C6.52667 10 7 9.79337 7.36 9.46004L12.0587 12.2054C12.0211 12.3563 12.0014 12.5112 12 12.6667C12 13.0623 12.1173 13.4489 12.3371 13.7778C12.5568 14.1067 12.8692 14.3631 13.2346 14.5145C13.6001 14.6658 14.0022 14.7054 14.3902 14.6283C14.7781 14.5511 15.1345 14.3606 15.4142 14.0809C15.6939 13.8012 15.8844 13.4448 15.9616 13.0569C16.0387 12.6689 15.9991 12.2668 15.8478 11.9013C15.6964 11.5359 15.44 11.2235 15.1111 11.0038C14.7822 10.784 14.3956 10.6667 14 10.6667Z" fill="white"/>
</g>
<defs>
<filter id="filter0_d_147_309" x="-2" y="0" width="24" height="24" filterUnits="userSpaceOnUse" color-interpolation-filters="sRGB">
<feFlood flood-opacity="0" result="BackgroundImageFix"/>
<feColorMatrix in="SourceAlpha" type="matrix" values="0 0 0 0 0 0 0 0 0 0 0 0 0 0 0 0 0 0 127 0" result="hardAlpha"/>
<feOffset dy="4"/>
<feGaussianBlur stdDeviation="2"/>
<feComposite in2="hardAlpha" operator="out"/>
<feColorMatrix type="matrix" values="0 0 0 0 0 0 0 0 0 0 0 0 0 0 0 0 0 0 0.25 0"/>
<feBlend mode="normal" in2="BackgroundImageFix" result="effect1_dropShadow_147_309"/>
<feBlend mode="normal" in="SourceGraphic" in2="effect1_dropShadow_147_309" result="shape"/>
</filter>
</defs>
</svg>
